<svg id="i4" enable-background="new 0 0 512 512" height="512" viewBox="0 0 512 512" width="512" xmlns="http://www.w3.org/2000/svg"><g><path d="m37.5 22.5-15 15v467h30v-467z" fill="#ccc"></path><path d="m474.5 157.5-70 150 70 150h30v-300z" fill="#405acc"></path><path d="m286 157.5 96.5 200v100h92v-300z" fill="#4271db"></path><path d="m382.5 97.5h-30l15 330h45v-300c0-16.5-13.5-30-30-30z" fill="#405acc"></path><path d="m352.5 97.5h-270v300h270l30 30v-300c0-16.5-13.5-30-30-30z" fill="#4271db"></path><path d="m382.5 397.5h-30v30c0 16.569 13.431 30 30 30s30-13.431 30-30-13.431-30-30-30z" fill="#3f43bd"></path><path d="m52.5 7.5h-30v30h30c8.284 0 15-6.716 15-15s-6.716-15-15-15z" fill="#ff9a42"></path><g fill="#ffba48"><circle cx="22.5" cy="22.5" r="15"></circle><circle cx="247.5" cy="142.5" r="7.5"></circle><circle cx="195" cy="156.567" r="7.5"></circle><circle cx="156.567" cy="195" r="7.5"></circle><circle cx="142.5" cy="247.5" r="7.5"></circle><circle cx="156.567" cy="300" r="7.5"></circle><circle cx="195" cy="338.433" r="7.5"></circle><circle cx="247.5" cy="352.5" r="7.5"></circle><circle cx="300" cy="338.433" r="7.5"></circle><circle cx="338.433" cy="300" r="7.5"></circle><circle cx="352.5" cy="247.5" r="7.5"></circle><circle cx="338.433" cy="195" r="7.5"></circle><circle cx="300" cy="156.567" r="7.5"></circle></g><path d="m504.5 150h-62c-4.142 0-7.5 3.358-7.5 7.5s3.358 7.5 7.5 7.5h54.5v285h-84.52c4.719-6.272 7.52-14.064 7.52-22.5v-300c0-20.678-16.822-37.5-37.5-37.5h-293.255c-2.99-14.672-14.573-26.255-29.245-29.245v-17.045c8.729-3.096 15-11.432 15-21.21 0-12.407-10.093-22.5-22.5-22.5h-30c-12.407 0-22.5 10.093-22.5 22.5 0 9.778 6.271 18.114 15 21.21v460.79c0 4.142 3.358 7.5 7.5 7.5h30c4.142 0 7.5-3.358 7.5-7.5v-70.255c14.672-2.99 26.255-14.573 29.245-29.245h255.755v22.5c0 20.678 16.822 37.5 37.5 37.5h122c4.142 0 7.5-3.358 7.5-7.5v-300c0-4.142-3.358-7.5-7.5-7.5zm-482-135h30c4.136 0 7.5 3.364 7.5 7.5s-3.364 7.5-7.5 7.5h-30c-4.136 0-7.5-3.364-7.5-7.5s3.364-7.5 7.5-7.5zm7.5 482v-452h15v452zm45-99.5c0 9.778-6.271 18.114-15 21.21v-342.42c8.729 3.096 15 11.432 15 21.21zm15-7.5v-285h292.5c12.407 0 22.5 10.093 22.5 22.5v270.021c-6.272-4.719-14.064-7.521-22.5-7.521zm270 37.5v-22.5h22.5c12.407 0 22.5 10.093 22.5 22.5s-10.093 22.5-22.5 22.5-22.5-10.093-22.5-22.5z"></path></g></svg>