<svg id="Layer_1" enable-background="new 0 0 256 256" height="60" viewBox="0 0 256 256" width="60" xmlns="http://www.w3.org/2000/svg"><path d="m59.095 25.938c-.974 11.564-13.025 13.39-13.025 13.39 10.347.487 12.925 14.059 12.925 14.059.221-9.677 13.321-14.202 13.321-14.202-9.813-.588-13.221-13.247-13.221-13.247z" fill="#d5de58"></path><path d="m72.406 37.687c-8.604-.514-11.832-12.024-11.863-12.14-.191-.702-.851-1.162-1.584-1.102-.725.066-1.298.642-1.359 1.367-.86 10.215-11.313 11.964-11.754 12.033-.763.115-1.314.79-1.273 1.561.04.77.657 1.384 1.428 1.421 9.027.425 11.498 12.719 11.521 12.843.138.711.76 1.217 1.473 1.217.042 0 .084-.001.126-.005.764-.064 1.357-.693 1.375-1.459.194-8.509 12.191-12.777 12.313-12.819.676-.235 1.092-.915.994-1.623-.1-.71-.683-1.251-1.397-1.294zm-13.566 10.346c-1.356-3.13-3.709-6.907-7.587-8.876 2.931-1.405 6.409-3.913 8.202-8.273 1.551 3.071 4.2 6.88 8.334 8.722-3.007 1.64-6.923 4.406-8.949 8.427z" fill="#3a312a"></path><path d="m37.396 42.919c-.689 8.179-9.212 9.471-9.212 9.471 7.318.344 9.142 9.944 9.142 9.944.156-6.844 9.422-10.045 9.422-10.045-6.941-.416-9.352-9.37-9.352-9.37z" fill="#d5de58"></path><path d="m46.838 50.791c-5.739-.343-7.951-8.111-7.993-8.262-.189-.703-.865-1.17-1.582-1.104-.726.065-1.3.642-1.361 1.368-.579 6.87-7.646 8.066-7.942 8.113-.763.115-1.314.79-1.273 1.561.04.77.657 1.384 1.428 1.421 6.035.284 7.724 8.644 7.739 8.726.136.712.759 1.22 1.473 1.22.041 0 .083-.001.125-.005.765-.063 1.358-.694 1.376-1.461.13-5.709 8.331-8.634 8.412-8.662.676-.234 1.093-.913.996-1.622-.099-.709-.684-1.251-1.398-1.293zm-9.585 6.795c-.924-1.886-2.34-3.947-4.447-5.28 1.855-1.041 3.697-2.629 4.871-4.916 1.057 1.874 2.653 3.955 4.941 5.224-1.849 1.1-3.989 2.74-5.365 4.972z" fill="#3a312a"></path><path d="m37.358 16.261c-.657 8.182-9.175 9.507-9.175 9.507 7.319.316 9.181 9.909 9.181 9.909.129-6.845 9.383-10.082 9.383-10.082-6.943-.389-9.389-9.334-9.389-9.334z" fill="#d5de58"></path><path d="m46.83 24.097c-5.741-.321-7.983-8.084-8.025-8.232-.192-.703-.871-1.167-1.586-1.097-.726.068-1.297.647-1.355 1.374-.552 6.873-7.615 8.096-7.911 8.144-.762.119-1.31.796-1.268 1.566.043.77.663 1.382 1.434 1.415 6.036.261 7.758 8.614 7.773 8.696.138.71.76 1.214 1.472 1.214.043 0 .087-.002.131-.005.765-.066 1.355-.699 1.37-1.466.107-5.71 8.297-8.666 8.377-8.694.676-.236 1.09-.917.99-1.626-.101-.71-.687-1.249-1.402-1.289zm-9.558 6.832c-.932-1.882-2.355-3.938-4.468-5.262 1.852-1.049 3.686-2.645 4.852-4.936 1.064 1.87 2.67 3.944 4.961 5.204-1.845 1.108-3.977 2.757-5.345 4.994z" fill="#3a312a"></path><path d="m119.359 193.279c-8.51 0-16.71-4.44-21.24-12.2-1.73-2.97-4.05-5.52-6.78-7.5-2.72-1.97-5.84-3.4-9.19-4.13l-20.21 53.14 31.74-15.59 13.37 32.74 17.92-47.13c-1.86.45-3.74.67-5.61.67z" fill="#87796f"></path><path d="m126.094 191.617c-.368-.417-.937-.598-1.478-.466-1.724.417-3.492.628-5.258.628-8.177 0-15.819-4.39-19.944-11.455-1.833-3.148-4.254-5.826-7.195-7.96-2.958-2.142-6.239-3.616-9.751-4.381-.724-.153-1.457.238-1.722.933l-20.21 53.14c-.219.576-.063 1.227.393 1.642.456.416 1.118.509 1.671.237l30.298-14.881 12.763 31.252c.23.565.78.933 1.389.933h.019c.616-.008 1.165-.391 1.384-.967l17.92-47.13c.195-.52.089-1.107-.279-1.525zm-19.095 44.032-11.932-29.217c-.157-.385-.467-.688-.856-.835-.172-.065-.352-.098-.533-.098-.227 0-.453.051-.661.154l-28.324 13.911 18.385-48.34c2.637.731 5.114 1.929 7.38 3.569 2.601 1.886 4.742 4.255 6.365 7.042 4.661 7.984 13.296 12.944 22.535 12.944 1.089 0 2.179-.071 3.261-.211z" fill="#3a312a"></path><path d="m206.373 196.333-5.018-13.196-5.206-13.689c-6.71 1.48-12.51 5.69-15.97 11.63-4.53 7.76-12.73 12.2-21.24 12.2-1.87 0-3.75-.22-5.61-.67l17.92 47.13 13.37-32.74 31.74 15.59z" fill="#87796f"></path><path d="m217.761 222.055-9.985-26.255c-.296-.774-1.162-1.163-1.936-.869s-1.163 1.161-.869 1.935l8.633 22.698-28.324-13.911c-.374-.185-.808-.204-1.194-.056-.389.147-.698.45-.855.835l-11.931 29.217-15.621-41.082c1.082.141 2.172.211 3.261.211 9.239 0 17.874-4.96 22.536-12.945 3.018-5.18 7.979-8.992 13.745-10.607l4.732 12.444c.296.775 1.162 1.163 1.936.869s1.163-1.161.869-1.935l-5.206-13.689c-.266-.696-1-1.093-1.726-.932-7.113 1.569-13.289 6.067-16.941 12.338-4.126 7.067-11.769 11.457-19.945 11.457-1.766 0-3.534-.211-5.258-.628-.543-.132-1.11.049-1.478.466s-.475 1.004-.277 1.525l17.921 47.13c.22.576.769.959 1.384.967h.019c.608 0 1.158-.368 1.389-.933l12.762-31.252 30.298 14.881c.552.271 1.215.177 1.671-.237.453-.415.608-1.066.39-1.642z" fill="#3a312a"></path><path d="m221.595 91.407-.044-.05c-4.57-5.132-6.782-11.943-6.101-18.781l.005-.054c1.237-12.421-7.033-23.797-19.23-26.452l-.037-.008c-6.729-1.465-12.534-5.685-16.004-11.633l-.001-.003c-6.297-10.796-19.693-15.148-31.132-10.113-6.309 2.776-13.493 2.777-19.802 0-11.439-5.035-24.836-.683-31.132 10.113l-.001.002c-3.469 5.948-9.275 10.169-16.004 11.633l-.037.008c-12.197 2.655-20.467 14.031-19.23 26.452l.006.055c.681 6.838-1.532 13.648-6.101 18.78l-.044.05c-8.296 9.317-8.296 23.372 0 32.69l.044.05c4.57 5.132 6.782 11.943 6.101 18.78l-.005.055c-1.237 12.421 7.033 23.797 19.23 26.452l.037.008c6.729 1.465 12.535 5.685 16.004 11.633l.002.003c6.297 10.796 19.693 15.147 31.132 10.113 6.309-2.776 13.493-2.777 19.802 0 11.439 5.034 24.835.683 31.132-10.114l.001-.002c3.469-5.948 9.275-10.169 16.004-11.633l.037-.008c12.197-2.655 20.467-14.031 19.23-26.452l-.005-.055c-.681-6.838 1.532-13.648 6.101-18.781l.044-.05c8.294-9.315 8.294-23.37-.002-32.688z" fill="#87796f"></path><path d="m222.671 90.36c-4.278-4.804-6.366-11.231-5.724-17.689 1.313-13.183-7.459-25.249-20.441-28.074-6.288-1.369-11.756-5.336-15.008-10.889-.007-.013-.014-.025-.021-.037-6.686-11.462-20.883-16.073-33.032-10.73-5.906 2.601-12.685 2.601-18.594 0-12.145-5.346-26.347-.732-33.033 10.732-3.249 5.571-8.727 9.552-15.065 10.932-12.944 2.818-21.716 14.884-20.397 28.121.637 6.402-1.451 12.83-5.773 17.684-8.803 9.887-8.803 24.797.045 34.734 4.278 4.805 6.366 11.232 5.724 17.688-1.314 13.183 7.458 25.249 20.44 28.075 6.288 1.368 11.756 5.336 15.008 10.889.007.012.014.024.021.037 4.81 8.246 13.506 12.947 22.531 12.946 3.521 0 7.093-.716 10.502-2.216 5.91-2.601 12.687-2.6 18.593 0 12.146 5.347 26.348.733 33.033-10.732 3.249-5.571 8.727-9.552 15.065-10.932 12.944-2.817 21.716-14.883 20.397-28.121-.637-6.402 1.451-12.83 5.729-17.634l.044-.049c8.804-9.887 8.804-24.799-.044-34.735zm-2.196 32.74 1.12.998-1.164-.948c-4.835 5.429-7.194 12.692-6.468 19.981 1.161 11.667-6.602 22.344-18.095 24.846-7.12 1.549-13.31 6.048-16.982 12.345-5.916 10.145-18.484 14.227-29.231 9.496-6.675-2.938-14.334-2.938-21.011 0-10.733 4.725-23.288.658-29.213-9.461-.007-.013-.014-.025-.021-.037-3.672-6.294-9.861-10.793-17.019-12.351-11.456-2.494-19.219-13.171-18.052-24.892.722-7.234-1.638-14.497-6.518-19.977-7.79-8.75-7.79-21.945.044-30.744 4.835-5.429 7.194-12.692 6.469-19.982-1.162-11.666 6.6-22.343 18.095-24.845 7.12-1.55 13.309-6.049 16.981-12.346 5.916-10.143 18.481-14.227 29.233-9.496 6.677 2.938 14.334 2.938 21.011 0 10.734-4.727 23.286-.658 29.212 9.461.007.013.014.025.021.037 3.672 6.294 9.861 10.793 17.019 12.351 11.456 2.493 19.219 13.171 18.052 24.892-.721 7.235 1.639 14.498 6.518 19.977 7.79 8.749 7.79 21.945-.001 30.695z" fill="#3a312a"></path><ellipse cx="139.149" cy="107.752" fill="#d5dc57" rx="66.217" ry="66.217" transform="matrix(.707 -.707 .707 .707 -35.437 129.953)"></ellipse><path d="m139.148 40.035c-37.339 0-67.717 30.378-67.717 67.717s30.378 67.717 67.717 67.717c37.34 0 67.718-30.378 67.718-67.717s-30.378-67.717-67.718-67.717zm0 132.435c-35.685 0-64.717-29.032-64.717-64.717s29.032-64.717 64.717-64.717c35.686 0 64.718 29.032 64.718 64.717s-29.032 64.717-64.718 64.717z" fill="#3a312a"></path><path d="m177.068 89.57h-24.22c-2.344 0-4.243-1.899-4.243-4.243v-13.823c0-4.734-3.838-8.571-8.565-8.571-2.367 0-4.508.958-6.058 2.508-1.55 1.555-2.508 3.697-2.508 6.063v10.696c0 4.406-2.806 8.329-6.982 9.749l-8.317 2.834c.034.254.051.513.051.778v38.758c0 .118-.006.231-.006.344l1.798.456c8.712 2.215 17.661 3.353 26.649 3.409.073 0 .141.005.214.005h20.901c3.359 0 6.08-2.722 6.08-6.08v-.079c0-3.358-2.722-6.08-6.08-6.08h4.159c3.359 0 6.08-2.722 6.08-6.08v-.079c0-3.287-2.606-5.963-5.865-6.077-.067-.002-3.53-.004-4.022-.004h7.965c3.358 0 6.08-2.722 6.08-6.08v-.079c0-3.358-2.722-6.08-6.08-6.08h-6.92l.006-.006h9.884c3.358 0 6.08-2.722 6.08-6.08v-.079c0-3.358-2.722-6.08-6.081-6.08z" fill="#f5e1c5"></path><path d="m184.648 95.651c0-4.18-3.4-7.581-7.58-7.581h-24.22c-1.513 0-2.743-1.23-2.743-2.743v-13.823c0-5.553-4.516-10.071-10.065-10.071-2.689 0-5.218 1.047-7.12 2.949-1.899 1.906-2.945 4.435-2.945 7.122v10.696c0 3.768-2.398 7.115-5.966 8.329l-8.317 2.834c-.679.231-1.099.91-1.003 1.62.025.188.037.381.037.578v38.758l-.006.344c0 .686.466 1.285 1.131 1.454l1.798.457c8.794 2.235 17.881 3.398 27.068 3.457l21.064.004c4.18 0 7.58-3.4 7.58-7.659 0-1.81-.638-3.473-1.699-4.778 3.353-.783 5.858-3.807 5.858-7.461 0-1.815-.628-3.479-1.684-4.782 3.345-.79 5.842-3.809 5.842-7.458 0-1.947-.738-3.725-1.949-5.069 2.872-1.084 4.919-3.872 4.919-7.177zm-7.58 4.659h-9.884c-.397 0-.785.164-1.066.445-.429.429-.558 1.074-.325 1.635s.779.926 1.386.926h6.92c2.525 0 4.58 2.055 4.58 4.659 0 2.525-2.055 4.58-4.58 4.58h-8.022c-.828 0-1.5.671-1.5 1.5s.672 1.5 1.5 1.5c.07 0 3.85.001 4.027.003 2.477.086 4.417 2.097 4.417 4.656 0 2.526-2.055 4.581-4.581 4.581h-4.158c-.828 0-1.5.671-1.5 1.5s.672 1.5 1.5 1.5c2.525 0 4.58 2.055 4.58 4.659 0 2.525-2.055 4.58-4.58 4.58h-20.554l-.552-.005c-8.885-.056-17.729-1.188-26.289-3.363l-.661-.167v-37.66l7.25-2.47c4.784-1.627 7.999-6.116 7.999-11.169v-10.696c0-1.888.735-3.665 2.068-5.003 1.334-1.334 3.108-2.068 4.997-2.068 3.896 0 7.065 3.172 7.065 7.071v13.823c0 3.167 2.576 5.743 5.743 5.743h24.22c2.525 0 4.58 2.055 4.58 4.659 0 2.526-2.054 4.581-4.58 4.581z" fill="#3a312a"></path><path d="m109.832 89.163h-8.425c-3.456 0-6.258 2.802-6.258 6.258v39.035c0 3.456 2.802 6.258 6.258 6.258h8.425c3.533 0 6.397-2.864 6.397-6.397v-38.757c0-3.533-2.864-6.397-6.397-6.397z" fill="#8ac1d8"></path><path d="m109.832 87.663h-8.426c-4.277 0-7.758 3.48-7.758 7.758v9.574c0 .829.672 1.5 1.5 1.5s1.5-.671 1.5-1.5v-9.574c0-2.624 2.135-4.758 4.758-4.758h8.426c2.7 0 4.897 2.197 4.897 4.896v38.757c0 2.7-2.196 4.896-4.897 4.896h-8.426c-2.623 0-4.758-2.134-4.758-4.757v-15.233c0-.829-.672-1.5-1.5-1.5s-1.5.671-1.5 1.5v15.233c0 4.277 3.48 7.757 7.758 7.757h8.426c4.355 0 7.897-3.542 7.897-7.896v-38.756c0-4.354-3.542-7.897-7.897-7.897z" fill="#3a312a"></path><path d="m105.651 127.768c-2.134 0-3.864 1.73-3.864 3.864s1.73 3.864 3.864 3.864 3.864-1.73 3.864-3.864-1.73-3.864-3.864-3.864z" fill="#87796f"></path><path d="m105.65 126.268c-2.957 0-5.363 2.406-5.363 5.364s2.406 5.364 5.363 5.364c2.958 0 5.364-2.406 5.364-5.364s-2.406-5.364-5.364-5.364zm0 7.728c-1.303 0-2.363-1.061-2.363-2.364s1.061-2.364 2.363-2.364c1.304 0 2.364 1.061 2.364 2.364s-1.06 2.364-2.364 2.364z" fill="#3a312a"></path><path d="m139.15 43.04c-3.05 0-6.06.21-9 .63 26.58 3.71 48.05 23.63 54.05 49.42.23.63.38 1.3.42 2 .82 4.09 1.25 8.33 1.25 12.66 0 32.64-24.28 59.7-55.72 64.09 2.94.42 5.95.63 9 .63 35.68 0 64.72-29.03 64.72-64.72 0-35.68-29.04-64.71-64.72-64.71z" fill="#b8c136"></path></svg>