<svg class="svg_icon_zadovoljstvo" data-name="Layer 1" xmlns="http://www.w3.org/2000/svg" viewBox="0 0 389.19 353.91"><defs><style>.cls-1-zadovoljstvo{fill:#fec750;}.cls-2-zadovoljstvo{fill:#2c3b45;}</style></defs><title>zadovoljstvo_barvni</title><circle class="cls-1-zadovoljstvo" cx="267.09" cy="113.11" r="110.85"></circle><path class="cls-2-zadovoljstvo" d="M758.42,608.6c-.44,43.81-27.9,84.22-69.56,99a106.33,106.33,0,0,1-116.47-31.72c-28.25-33.74-32-83.21-9.58-121s67.93-58.33,111.24-49.43c48.87,10,83.87,53.47,84.37,103.13.08,7.86,12.31,7.88,12.23,0-.5-48.75-30.71-92.81-76.49-110-45.94-17.29-99.88-2.89-131.1,34.94C531.58,571.63,527,627,552.81,669.38c25.51,41.93,75.28,63.69,123.4,54.35,54.65-10.62,93.88-60,94.44-115.13C770.73,600.73,758.5,600.72,758.42,608.6Z" transform="translate(-381.45 -491.3)"></path><circle class="cls-2-zadovoljstvo" cx="227.41" cy="78.56" r="13.96"></circle><circle class="cls-2-zadovoljstvo" cx="315.18" cy="78.56" r="13.96"></circle><path class="cls-2-zadovoljstvo" d="M684.17,621.86c-3.76,14-16.8,24.47-31.42,24.47s-27.67-10.43-31.43-24.47a45.83,45.83,0,0,1-1.34-9.79,6.72,6.72,0,0,1,6.73-7h0a6.72,6.72,0,0,1,6.71,6.55c0,.43,0,.86,0,1.28.39,10.62,8.13,20.1,19.29,20.1s18.92-9.52,19.28-20.16l0-1.17a6.73,6.73,0,0,1,6.71-6.6h0a6.72,6.72,0,0,1,6.73,7A45.21,45.21,0,0,1,684.17,621.86Z" transform="translate(-381.45 -491.3)"></path><path class="cls-2-zadovoljstvo" d="M753.27,732.7c-5.71-3.06-11.22-4.93-17.57-3.36-12.44,3-111.75,28.07-129.26,32.46-5.6-12.39-16.84-19.76-25.61-29.28-6.75-7.29-14.14-14-21-21.14-6.49-6.8-14.31-9.82-23.59-9.8-24.27.07-48.53,0-72.8,0-1.61,0-3.22,0-4.86,0V691.25a15.65,15.65,0,0,0-15.66-15.67h-45.8a15.66,15.66,0,0,0-15.67,15.67V814.18a15.66,15.66,0,0,0,15.67,15.67h45.8a15.65,15.65,0,0,0,15.66-15.67V795.9c8.69,1.7,17,3.19,25.26,5C502,805,554.67,833.31,565,838.51c17,8.55,34.55,9.09,51.53.64C660.1,817.4,703.37,795,746.86,773.09c7.5-3.79,13.53-8.58,15.93-17C762.79,756.14,765.79,739.42,753.27,732.7ZM420,804.58a16,16,0,1,1,16-16A16,16,0,0,1,420,804.58Zm324.43-43.11c-11.62,5.93-99.58,50.69-132,67-14.32,7.21-28.75,6.74-43.07-.41C547.17,817,525.05,805.62,502.58,795c-13.75-6.48-29-7.86-43.84-10.47l-.16,0V713h35.9c13.7,0,27.41.13,41.1-.05a21.08,21.08,0,0,1,16.23,6.5c12.87,13.06,25.9,26,38.91,39,3.82,3.81,5.83,8.23,4.48,13.63a11.83,11.83,0,0,1-9.2,9c-5.32,1.33-9.51-.85-13.19-4.56Q555.67,759.23,538.43,742a16.89,16.89,0,0,0-3.48-2.85c-2.4-1.34-4.7-.73-6.52,1.19a5.1,5.1,0,0,0-.76,6.58,15.55,15.55,0,0,0,2.17,2.58c11.81,11.83,23.58,23.72,35.49,35.44,13.95,13.72,34.18,8.92,40.86-9.46.46-1.31,2.55-2.51,4.11-2.89,20.2-5.2,104.71-26.35,112.74-28.4,4.5-1.11,9-2.34,13.49-3.44,6.73-1.69,12.18.78,14.25,6.39C752.94,753,750.6,758.36,744.45,761.47Z" transform="translate(-381.45 -491.3)"></path></svg>