<svg class="svg_icon_dostava" data-name="Layer 1" xmlns="http://www.w3.org/2000/svg" viewBox="0 0 592 555.39"><defs><style>.cls-1-fast-delivery{fill:#e1655f;}.cls-2-fast-delivery{fill:#2c3b45;}</style></defs><title>2dostava_barvni</title><path class="cls-1-fast-delivery" d="M691.05,1101.7l-51.54,320.06L633.68,1458H505.55a60.86,60.86,0,0,0,.49-7.7c0-.54,0-1.08,0-1.61l0-.83c0-.39,0-.77-.06-1.16,0-.13,0-.26,0-.39,0-.6-.08-1.19-.13-1.78s-.11-1.06-.17-1.59c0-.28-.06-.55-.11-.83-.22-1.77-.53-3.51-.91-5.22-.1-.49-.21-1-.34-1.45a1.05,1.05,0,0,0-.06-.24c-.13-.57-.28-1.12-.44-1.68v0c-.16-.58-.33-1.15-.51-1.72s-.37-1.16-.57-1.73-.4-1.14-.62-1.7a.06.06,0,0,1,0,0c-.21-.54-.42-1.07-.64-1.6a.37.37,0,0,1-.05-.11c-.22-.53-.45-1-.69-1.57-.48-1.09-1-2.15-1.56-3.2-8.85-16.78-25.29-28-44.1-28s-35.26,11.27-44.11,28q-1.25,2.35-2.27,4.84c-.23.54-.45,1.09-.66,1.64a.06.06,0,0,1,0,0c-.22.56-.43,1.13-.62,1.7s-.39,1.15-.57,1.73c-.36,1.13-.68,2.28-1,3.44a1.05,1.05,0,0,0-.06.24c-.13.48-.24,1-.34,1.45-.38,1.71-.69,3.45-.91,5.22-.05.28-.08.55-.11.83-.06.53-.12,1.06-.17,1.59s-.1,1.18-.13,1.78c0,.13,0,.26,0,.39,0,.39-.05.77-.06,1.16l0,.83c0,.53,0,1.07,0,1.61a60.87,60.87,0,0,0,.48,7.7H336.6a23.74,23.74,0,0,1-17-7.34,29.55,29.55,0,0,1-7.74-25.46l.55-3.39,5.5-33.62H293.25c-4.69,0-8.47-6.14-8.47-13.75s3.78-13.72,8.47-13.72l133.06.49c4.68,0,8.47-6.14,8.47-13.72s-3.79-13.75-8.47-13.75l-150.84.51c-4.66,0-8.47-6.14-8.47-13.74s3.81-13.72,8.47-13.72l119.84.48c4.68,0,8.47-6.14,8.47-13.72s-3.79-13.74-8.47-13.74l-73.82.51a5.41,5.41,0,0,1-2.27-.51c-3.58-1.6-6.2-6.94-6.2-13.24,0-7.58,3.78-13.74,8.47-13.74l50.82.51c4.68,0,8.47-6.14,8.47-13.72s-3.79-13.75-8.47-13.75l-35.45.52c-4.69,0-8.47-6.17-8.47-13.75s3.78-13.75,8.47-13.75h12s48.54,17.3,75.36,17.16c81.64.11,148.29-69.4,148.3-146.65v-.46h93.78C682,1068.89,693.84,1084.61,691.05,1101.7Z" transform="translate(-267 -940.66)"></path><path class="cls-2-fast-delivery" d="M410.9,1421.76a61.9,61.9,0,0,0-6.48,36.21H336.6c-15.69,0-27.55-15.73-24.76-32.82l.55-3.39Z" transform="translate(-267 -940.66)"></path><path class="cls-2-fast-delivery" d="M639.6,1421.76,633.68,1458H505.55a61.64,61.64,0,0,0-6.47-36.21Z" transform="translate(-267 -940.66)"></path><path class="cls-2-fast-delivery" d="M778.87,1198.43H687.05l-40.9,257h45.73c-.14-1.69-.21-3.39-.21-5.14,0-31.22,22.86-56.53,51.05-56.53s51,25.31,51,56.53c0,1.75-.07,3.45-.21,5.14h27.22c12.9,0,23.79-10.66,25.34-24.84L859,1314.21Zm-87.43,97.64,9.84-61.77H773l42.74,61.77Z" transform="translate(-267 -940.66)"></path><path class="cls-2-fast-delivery" d="M454.92,1403.55c-23.07,0-41.77,20.71-41.77,46.25s18.7,46.25,41.77,46.25,41.77-20.71,41.77-46.25S478,1403.55,454.92,1403.55Zm0,66.81c-10.26,0-18.57-9.2-18.57-20.56s8.31-20.55,18.57-20.55,18.56,9.22,18.56,20.55S465.17,1470.36,454.92,1470.36Z" transform="translate(-267 -940.66)"></path><path class="cls-2-fast-delivery" d="M742.78,1403.55c-23.07,0-41.77,20.71-41.77,46.25s18.7,46.25,41.77,46.25,41.76-20.71,41.76-46.25S765.84,1403.55,742.78,1403.55Zm0,66.81c-10.26,0-18.57-9.2-18.57-20.56s8.31-20.55,18.57-20.55,18.56,9.22,18.56,20.55S753,1470.36,742.78,1470.36Z" transform="translate(-267 -940.66)"></path><path class="cls-2-fast-delivery" d="M424.29,1196.37c-68.15.36-127.81-59.46-127.52-128.53.29-68.46,60.94-127.89,129.32-127.17,64.88.69,126.76,56.28,126.76,128.57C552.84,1136.21,495.06,1196.47,424.29,1196.37Zm-1.05-230.84c-50.69-.41-100.87,39.56-101.67,101.69-.78,60.09,45.93,104.33,102.62,104.43,57.31.11,103.25-42.5,103.8-102.41C528.48,1015.64,488.61,965.15,423.24,965.53Z" transform="translate(-267 -940.66)"></path><path class="cls-2-fast-delivery" d="M425.23,1050.68c4.83-4.82,9.41-9.53,14.15-14.08,4.4-4.23,8.86-8.41,13.5-12.38a11.11,11.11,0,0,1,15,.31c4.24,3.88,5.3,10.76,1.8,15.32a116.53,116.53,0,0,1-10.51,11.7c-8.57,8.54-17.21,17-26,25.3-6.07,5.71-9.78,6.07-16,.47-10.95-9.9-21.47-20.3-32.05-30.61-8.58-8.35-17-16.87-25.49-25.31-3.75-3.73-3.38-12.65.71-17,4.49-4.75,11.15-5.44,15.71-1.09,15.55,14.85,30.93,29.87,46.38,44.82C423.32,1049,424.21,1049.75,425.23,1050.68Z" transform="translate(-267 -940.66)"></path></svg>