<svg id="i3" enable-background="new 0 0 36 36" height="512" viewBox="0 0 36 36" width="512" xmlns="http://www.w3.org/2000/svg"> <g id="BG"> <path d="m4.167 27.623c0-6.917-3.583-11.667-3.583-15s1.916-10.333 17.249-10.333 17.583 9.417 17.583 13.083c.001 17.167-31.249 24.5-31.249 12.25z" fill="#efefef"></path> </g> <g id="effect"> <g> <path d="m7.783 2.727h2v1h-2z" fill="#a4afc1" transform="matrix(.707 -.707 .707 .707 .291 7.156)"></path> </g> <g> <path d="m3.717 6.793h2v1h-2z" fill="#a4afc1" transform="matrix(.707 -.707 .707 .707 -3.775 5.471)"></path> </g> <g> <path d="m4.217 2.05h1v2h-1z" fill="#a4afc1" transform="matrix(.707 -.707 .707 .707 -.775 4.229)"></path> </g> <path d="m31.378 22.25c-.827 0-1.5-.673-1.5-1.5s.673-1.5 1.5-1.5 1.5.673 1.5 1.5-.673 1.5-1.5 1.5zm0-2c-.275 0-.5.224-.5.5s.225.5.5.5.5-.224.5-.5-.225-.5-.5-.5z" fill="#a4afc1"></path> </g> <g id="color"> <path d="m19.53 16.75h-11.28v3.5 7h3.5 3.48 7.52v-6.95-3.55z" fill="#f3f3f1"></path> <path d="m25.25 20.3h-2.5v6.95h1 3.479 2.021v-2.95c0-2.209-1.791-4-4-4z" fill="#2fdf84"></path> <circle cx="13.5" cy="27.5" fill="#f3f3f1" r="1.75"></circle> <circle cx="25.5" cy="27.5" fill="#f3f3f1" r="1.75"></circle> <circle cx="12.5" cy="12.5" fill="#2fdf84" r="5.75"></circle> </g> <g id="shadow"> <path d="m10.5 16.75h-2.25v3.5 7h2.25v-7z" fill="#d5dbe1"></path> <path d="m22.75 20.3v6.95h1 1.25v-6.95z" fill="#00b871"></path> <path d="m14 27.5c0-.536.246-1.009.625-1.33-.305-.258-.694-.42-1.125-.42-.966 0-1.75.784-1.75 1.75s.784 1.75 1.75 1.75c.431 0 .82-.162 1.125-.42-.379-.321-.625-.794-.625-1.33z" fill="#d5dbe1"></path> <path d="m26 27.5c0-.536.246-1.009.625-1.33-.305-.258-.694-.42-1.125-.42-.966 0-1.75.784-1.75 1.75s.784 1.75 1.75 1.75c.431 0 .82-.162 1.125-.42-.379-.321-.625-.794-.625-1.33z" fill="#d5dbe1"></path> <path d="m9 12.5c0-2.79 1.988-5.115 4.625-5.638-.364-.073-.74-.112-1.125-.112-3.176 0-5.75 2.574-5.75 5.75s2.574 5.75 5.75 5.75c.385 0 .761-.039 1.125-.112-2.637-.523-4.625-2.848-4.625-5.638z" fill="#00b871"></path> </g> <g id="reg"> <path d="m12.5 28h-4.25c-.414 0-.75-.336-.75-.75v-7.86h1.5v7.11h3.5z"></path> <path d="m22.75 28h-8.27v-1.5h7.52v-9h-2.61v-1.5h3.36c.414 0 .75.336.75.75v10.5c0 .414-.336.75-.75.75z"></path> <path d="m29.25 28h-2.771v-1.5h2.021v-2.2c0-1.792-1.458-3.25-3.25-3.25h-1.75v5.45h1v1.5h-1.75c-.414 0-.75-.336-.75-.75v-6.95c0-.414.336-.75.75-.75h2.5c2.619 0 4.75 2.131 4.75 4.75v2.95c0 .414-.336.75-.75.75z"></path> <path d="m13.5 30c-1.379 0-2.5-1.122-2.5-2.5s1.121-2.5 2.5-2.5 2.5 1.122 2.5 2.5-1.121 2.5-2.5 2.5zm0-3.5c-.552 0-1 .449-1 1s.448 1 1 1 1-.449 1-1-.448-1-1-1z"></path> <path d="m25.5 30c-1.379 0-2.5-1.122-2.5-2.5s1.121-2.5 2.5-2.5 2.5 1.122 2.5 2.5-1.121 2.5-2.5 2.5zm0-3.5c-.552 0-1 .449-1 1s.448 1 1 1 1-.449 1-1-.448-1-1-1z"></path> <path d="m12.5 19c-3.584 0-6.5-2.916-6.5-6.5s2.916-6.5 6.5-6.5 6.5 2.916 6.5 6.5-2.916 6.5-6.5 6.5zm0-11.5c-2.757 0-5 2.243-5 5s2.243 5 5 5 5-2.243 5-5-2.243-5-5-5z"></path> <path d="m12 15h-2.75c-.414 0-.75-.336-.75-.75v-1c0-.965.785-1.75 1.75-1.75.138 0 .25-.112.25-.25s-.112-.25-.25-.25h-1.75v-1.5h1.75c.965 0 1.75.785 1.75 1.75s-.785 1.75-1.75 1.75c-.138 0-.25.112-.25.25v.25h2z"></path> <path d="m14.5 9.5h1.5v5.5h-1.5z"></path> <path d="m16 13h-1.75c-.965 0-1.75-.785-1.75-1.75v-1.75h1.5v1.75c0 .138.112.25.25.25h1.75z"></path> </g> </svg>